# WaveFront *.obj file (generated by Autodesk ATF)

mtllib finestra.mtl

g Solid1

v 0.000000 0.000000 0.000000
v 0.000000 0.000000 20.000000
v 0.000000 15.000000 0.000000
v 0.000000 15.000000 20.000000
v 0.000000 16.119645 0.062878
v 0.000000 16.119645 19.937122
v 0.000000 17.225209 0.250721
v 0.000000 17.225209 19.749279
v 0.000000 18.302791 0.561167
v 0.000000 18.302791 19.438833
v 0.000000 19.338838 0.990311
v 0.000000 19.338838 19.009689
v 0.000000 20.320320 1.532758
v 0.000000 20.320320 18.467242
v 0.000000 21.234899 2.181685
v 0.000000 21.234899 17.818315
v 0.000000 22.071068 2.928932
v 0.000000 22.071068 17.071068
v 0.000000 22.818315 3.765102
v 0.000000 22.818315 16.234899
v 0.000000 23.467243 4.679679
v 0.000000 23.467243 15.320321
v 0.000000 24.009688 5.661163
v 0.000000 24.009688 14.338838
v 0.000000 24.438834 6.697209
v 0.000000 24.438834 13.302791
v 0.000000 24.749279 7.774791
v 0.000000 24.749279 12.225209
v 0.000000 24.937122 8.880355
v 0.000000 24.937122 11.119645
v 0.000000 25.000000 10.000000
v 1.000000 0.000000 0.000000
v 1.000000 0.000000 20.000000
v 1.000000 15.000000 0.000000
v 1.000000 15.000000 20.000000
v 1.000000 16.119645 0.062878
v 1.000000 16.119645 19.937122
v 1.000000 17.225209 0.250721
v 1.000000 17.225209 19.749279
v 1.000000 18.302791 0.561167
v 1.000000 18.302791 19.438833
v 1.000000 19.338838 0.990311
v 1.000000 19.338838 19.009689
v 1.000000 20.320320 1.532758
v 1.000000 20.320320 18.467242
v 1.000000 21.234899 2.181685
v 1.000000 21.234899 17.818315
v 1.000000 22.071068 2.928932
v 1.000000 22.071068 17.071068
v 1.000000 22.818315 3.765102
v 1.000000 22.818315 16.234899
v 1.000000 23.467243 4.679679
v 1.000000 23.467243 15.320321
v 1.000000 24.009688 5.661163
v 1.000000 24.009688 14.338838
v 1.000000 24.438834 6.697209
v 1.000000 24.438834 13.302791
v 1.000000 24.749279 7.774791
v 1.000000 24.749279 12.225209
v 1.000000 24.937122 8.880355
v 1.000000 24.937122 11.119645
v 1.000000 25.000000 10.000000
vt -0.000000 -1.570796 0.000000
vt -0.000000 -1.458597 0.000000
vt -0.000000 -1.346397 0.000000
vt -0.000000 -1.234197 0.000000
vt -0.000000 -1.121997 0.000000
vt -0.000000 -1.009798 0.000000
vt -0.000000 -0.897598 0.000000
vt -0.000000 -0.785398 0.000000
vt -0.000000 -0.673198 0.000000
vt -0.000000 -0.560999 0.000000
vt -0.000000 -0.448799 0.000000
vt -0.000000 -0.336599 0.000000
vt -0.000000 -0.224399 0.000000
vt -0.000000 -0.112200 0.000000
vt -0.000000 0.000000 0.000000
vt -0.000000 0.112200 0.000000
vt -0.000000 0.224399 0.000000
vt -0.000000 0.336599 0.000000
vt -0.000000 0.448799 0.000000
vt -0.000000 0.560999 0.000000
vt -0.000000 0.673198 0.000000
vt -0.000000 0.785398 0.000000
vt -0.000000 0.897598 0.000000
vt -0.000000 1.009798 0.000000
vt -0.000000 1.121997 0.000000
vt -0.000000 1.234197 0.000000
vt -0.000000 1.346397 0.000000
vt -0.000000 1.458597 0.000000
vt -0.000000 1.570796 0.000000
vt -0.100000 1.570796 0.000000
vt -0.100000 1.458597 0.000000
vt -0.100000 1.346397 0.000000
vt -0.100000 1.234197 0.000000
vt -0.100000 1.121997 0.000000
vt -0.100000 1.009798 0.000000
vt -0.100000 0.897598 0.000000
vt -0.100000 0.785398 0.000000
vt -0.100000 0.673198 0.000000
vt -0.100000 0.560999 0.000000
vt -0.100000 0.448799 0.000000
vt -0.100000 0.336599 0.000000
vt -0.100000 0.224399 0.000000
vt -0.100000 0.112200 0.000000
vt -0.100000 0.000000 0.000000
vt -0.100000 -0.112200 0.000000
vt -0.100000 -0.224399 0.000000
vt -0.100000 -0.336599 0.000000
vt -0.100000 -0.448799 0.000000
vt -0.100000 -0.560999 0.000000
vt -0.100000 -0.673198 0.000000
vt -0.100000 -0.785398 0.000000
vt -0.100000 -0.897598 0.000000
vt -0.100000 -1.009798 0.000000
vt -0.100000 -1.121997 0.000000
vt -0.100000 -1.234197 0.000000
vt -0.100000 -1.346397 0.000000
vt -0.100000 -1.458597 0.000000
vt -0.100000 -1.570796 0.000000
vt 0.000000 0.000000 0.000000
vt 1.500000 0.000000 0.000000
vt 1.500000 0.100000 0.000000
vt 0.000000 0.100000 0.000000
vt 0.000000 0.000000 0.000000
vt 2.000000 0.000000 0.000000
vt 2.000000 0.100000 0.000000
vt 0.000000 0.100000 0.000000
vt 0.000000 0.000000 0.000000
vt 1.500000 0.000000 0.000000
vt 1.500000 0.100000 0.000000
vt 0.000000 0.100000 0.000000
vt -1.000000 0.250000 0.000000
vt -1.000000 -1.250000 0.000000
vt 1.000000 -1.250000 0.000000
vt 1.000000 0.250000 0.000000
vt 0.993712 0.361964 0.000000
vt 0.974928 0.472521 0.000000
vt 0.943883 0.580279 0.000000
vt 0.900969 0.683884 0.000000
vt 0.846724 0.782032 0.000000
vt 0.781832 0.873490 0.000000
vt 0.707107 0.957107 0.000000
vt 0.623490 1.031832 0.000000
vt 0.532032 1.096724 0.000000
vt 0.433884 1.150969 0.000000
vt 0.330279 1.193883 0.000000
vt 0.222521 1.224928 0.000000
vt 0.111964 1.243712 0.000000
vt 0.000000 1.250000 0.000000
vt -0.111964 1.243712 0.000000
vt -0.222521 1.224928 0.000000
vt -0.330279 1.193883 0.000000
vt -0.433884 1.150969 0.000000
vt -0.532032 1.096724 0.000000
vt -0.623490 1.031832 0.000000
vt -0.707107 0.957107 0.000000
vt -0.781832 0.873490 0.000000
vt -0.846724 0.782032 0.000000
vt -0.900969 0.683884 0.000000
vt -0.943883 0.580279 0.000000
vt -0.974928 0.472521 0.000000
vt -0.993712 0.361964 0.000000
vt 1.000000 -1.250000 0.000000
vt 1.000000 0.250000 0.000000
vt 0.993712 0.361964 0.000000
vt 0.974928 0.472521 0.000000
vt 0.943883 0.580279 0.000000
vt 0.900969 0.683884 0.000000
vt 0.846724 0.782032 0.000000
vt 0.781832 0.873490 0.000000
vt 0.707107 0.957107 0.000000
vt 0.623490 1.031832 0.000000
vt 0.532032 1.096724 0.000000
vt 0.433884 1.150969 0.000000
vt 0.330279 1.193883 0.000000
vt 0.222521 1.224928 0.000000
vt 0.111964 1.243712 0.000000
vt -0.000000 1.250000 0.000000
vt -0.111964 1.243712 0.000000
vt -0.222521 1.224928 0.000000
vt -0.330279 1.193883 0.000000
vt -0.433884 1.150969 0.000000
vt -0.532032 1.096724 0.000000
vt -0.623490 1.031832 0.000000
vt -0.707107 0.957107 0.000000
vt -0.781832 0.873490 0.000000
vt -0.846724 0.782032 0.000000
vt -0.900969 0.683884 0.000000
vt -0.943883 0.580279 0.000000
vt -0.974928 0.472521 0.000000
vt -0.993712 0.361964 0.000000
vt -1.000000 0.250000 0.000000
vt -1.000000 -1.250000 0.000000
vn 0.000000 0.000000 -0.100000
vn 0.000000 0.011196 -0.099371
vn 0.000000 0.022252 -0.097493
vn 0.000000 0.033028 -0.094388
vn 0.000000 0.043388 -0.090097
vn 0.000000 0.053203 -0.084672
vn 0.000000 0.062349 -0.078183
vn 0.000000 0.070711 -0.070711
vn 0.000000 0.078183 -0.062349
vn 0.000000 0.084672 -0.053203
vn 0.000000 0.090097 -0.043388
vn 0.000000 0.094388 -0.033028
vn 0.000000 0.097493 -0.022252
vn 0.000000 0.099371 -0.011196
vn 0.000000 0.100000 0.000000
vn 0.000000 0.099371 0.011196
vn 0.000000 0.097493 0.022252
vn 0.000000 0.094388 0.033028
vn 0.000000 0.090097 0.043388
vn 0.000000 0.084672 0.053203
vn 0.000000 0.078183 0.062349
vn 0.000000 0.070711 0.070711
vn 0.000000 0.062349 0.078183
vn 0.000000 0.053203 0.084672
vn 0.000000 0.043388 0.090097
vn 0.000000 0.033028 0.094388
vn 0.000000 0.022252 0.097493
vn 0.000000 0.011196 0.099371
vn 0.000000 0.000000 0.100000
vn 0.000000 0.000000 0.100000
vn 0.000000 0.011196 0.099371
vn 0.000000 0.022252 0.097493
vn 0.000000 0.033028 0.094388
vn 0.000000 0.043388 0.090097
vn 0.000000 0.053203 0.084672
vn 0.000000 0.062349 0.078183
vn 0.000000 0.070711 0.070711
vn 0.000000 0.078183 0.062349
vn 0.000000 0.084672 0.053203
vn 0.000000 0.090097 0.043388
vn 0.000000 0.094388 0.033028
vn 0.000000 0.097493 0.022252
vn 0.000000 0.099371 0.011196
vn 0.000000 0.100000 0.000000
vn 0.000000 0.099371 -0.011196
vn 0.000000 0.097493 -0.022252
vn 0.000000 0.094388 -0.033028
vn 0.000000 0.090097 -0.043388
vn 0.000000 0.084672 -0.053203
vn 0.000000 0.078183 -0.062349
vn 0.000000 0.070711 -0.070711
vn 0.000000 0.062349 -0.078183
vn 0.000000 0.053203 -0.084672
vn 0.000000 0.043388 -0.090097
vn 0.000000 0.033028 -0.094388
vn 0.000000 0.022252 -0.097493
vn 0.000000 0.011196 -0.099371
vn 0.000000 0.000000 -0.100000
vn 0.000000 0.000000 -0.100000
vn 0.000000 0.000000 -0.100000
vn 0.000000 0.000000 -0.100000
vn 0.000000 0.000000 -0.100000
vn 0.000000 -0.100000 0.000000
vn 0.000000 -0.100000 0.000000
vn 0.000000 -0.100000 0.000000
vn 0.000000 -0.100000 0.000000
vn 0.000000 0.000000 0.100000
vn 0.000000 0.000000 0.100000
vn 0.000000 0.000000 0.100000
vn 0.000000 0.000000 0.100000
vn 0.100000 0.000000 0.000000
vn 0.100000 0.000000 0.000000
vn 0.100000 0.000000 0.000000
vn 0.100000 0.000000 0.000000
vn 0.100000 0.000000 0.000000
vn 0.100000 0.000000 0.000000
vn 0.100000 0.000000 0.000000
vn 0.100000 0.000000 0.000000
vn 0.100000 0.000000 0.000000
vn 0.100000 0.000000 0.000000
vn 0.100000 0.000000 0.000000
vn 0.100000 0.000000 0.000000
vn 0.100000 0.000000 0.000000
vn 0.100000 0.000000 0.000000
vn 0.100000 0.000000 0.000000
vn 0.100000 0.000000 0.000000
vn 0.100000 0.000000 0.000000
vn 0.100000 0.000000 0.000000
vn 0.100000 0.000000 0.000000
vn 0.100000 0.000000 0.000000
vn 0.100000 0.000000 0.000000
vn 0.100000 0.000000 0.000000
vn 0.100000 0.000000 0.000000
vn 0.100000 0.000000 0.000000
vn 0.100000 0.000000 0.000000
vn 0.100000 0.000000 0.000000
vn 0.100000 0.000000 0.000000
vn 0.100000 0.000000 0.000000
vn 0.100000 0.000000 0.000000
vn 0.100000 0.000000 0.000000
vn 0.100000 0.000000 0.000000
vn -0.100000 0.000000 0.000000
vn -0.100000 0.000000 0.000000
vn -0.100000 0.000000 0.000000
vn -0.100000 0.000000 0.000000
vn -0.100000 0.000000 0.000000
vn -0.100000 0.000000 0.000000
vn -0.100000 0.000000 0.000000
vn -0.100000 0.000000 0.000000
vn -0.100000 0.000000 0.000000
vn -0.100000 0.000000 0.000000
vn -0.100000 0.000000 0.000000
vn -0.100000 0.000000 0.000000
vn -0.100000 0.000000 0.000000
vn -0.100000 0.000000 0.000000
vn -0.100000 0.000000 0.000000
vn -0.100000 0.000000 0.000000
vn -0.100000 0.000000 0.000000
vn -0.100000 0.000000 0.000000
vn -0.100000 0.000000 0.000000
vn -0.100000 0.000000 0.000000
vn -0.100000 0.000000 0.000000
vn -0.100000 0.000000 0.000000
vn -0.100000 0.000000 0.000000
vn -0.100000 0.000000 0.000000
vn -0.100000 0.000000 0.000000
vn -0.100000 0.000000 0.000000
vn -0.100000 0.000000 0.000000
vn -0.100000 0.000000 0.000000
vn -0.100000 0.000000 0.000000
vn -0.100000 0.000000 0.000000
vn -0.100000 0.000000 0.000000
usemtl 191,191,191
f 34/58/58 3/1/1 36/57/57
f 36/57/57 3/1/1 5/2/2
f 36/57/57 5/2/2 38/56/56
f 38/56/56 5/2/2 7/3/3
f 38/56/56 7/3/3 40/55/55
f 40/55/55 7/3/3 9/4/4
f 40/55/55 9/4/4 42/54/54
f 42/54/54 9/4/4 11/5/5
f 42/54/54 11/5/5 44/53/53
f 44/53/53 11/5/5 13/6/6
f 44/53/53 13/6/6 46/52/52
f 46/52/52 13/6/6 15/7/7
f 46/52/52 15/7/7 48/51/51
f 48/51/51 15/7/7 17/8/8
f 48/51/51 17/8/8 50/50/50
f 50/50/50 17/8/8 19/9/9
f 50/50/50 19/9/9 52/49/49
f 52/49/49 19/9/9 21/10/10
f 52/49/49 21/10/10 54/48/48
f 54/48/48 21/10/10 23/11/11
f 54/48/48 23/11/11 56/47/47
f 56/47/47 23/11/11 25/12/12
f 56/47/47 25/12/12 58/46/46
f 58/46/46 25/12/12 27/13/13
f 58/46/46 27/13/13 60/45/45
f 60/45/45 27/13/13 29/14/14
f 60/45/45 29/14/14 62/44/44
f 62/44/44 29/14/14 31/15/15
f 62/44/44 31/15/15 61/43/43
f 61/43/43 31/15/15 30/16/16
f 61/43/43 30/16/16 59/42/42
f 59/42/42 30/16/16 28/17/17
f 59/42/42 28/17/17 57/41/41
f 57/41/41 28/17/17 26/18/18
f 57/41/41 26/18/18 55/40/40
f 55/40/40 26/18/18 24/19/19
f 55/40/40 24/19/19 53/39/39
f 53/39/39 24/19/19 22/20/20
f 53/39/39 22/20/20 51/38/38
f 51/38/38 22/20/20 20/21/21
f 51/38/38 20/21/21 49/37/37
f 49/37/37 20/21/21 18/22/22
f 49/37/37 18/22/22 47/36/36
f 47/36/36 18/22/22 16/23/23
f 47/36/36 16/23/23 45/35/35
f 45/35/35 16/23/23 14/24/24
f 45/35/35 14/24/24 43/34/34
f 43/34/34 14/24/24 12/25/25
f 43/34/34 12/25/25 41/33/33
f 41/33/33 12/25/25 10/26/26
f 41/33/33 10/26/26 39/32/32
f 39/32/32 10/26/26 8/27/27
f 39/32/32 8/27/27 37/31/31
f 37/31/31 8/27/27 6/28/28
f 37/31/31 6/28/28 35/30/30
f 35/30/30 6/28/28 4/29/29
f 1/59/59 3/60/60 32/62/62
f 32/62/62 3/60/60 34/61/61
f 2/63/63 1/64/64 33/66/66
f 33/66/66 1/64/64 32/65/65
f 4/67/67 2/68/68 35/70/70
f 35/70/70 2/68/68 33/69/69
f 33/72/72 32/73/73 35/71/71
f 35/71/71 32/73/73 34/74/74
f 35/71/71 34/74/74 37/101/101
f 37/101/101 34/74/74 36/75/75
f 37/101/101 36/75/75 39/100/100
f 39/100/100 36/75/75 38/76/76
f 39/100/100 38/76/76 41/99/99
f 41/99/99 38/76/76 43/98/98
f 43/98/98 38/76/76 45/97/97
f 45/97/97 38/76/76 47/96/96
f 47/96/96 38/76/76 49/95/95
f 49/95/95 38/76/76 51/94/94
f 51/94/94 38/76/76 53/93/93
f 53/93/93 38/76/76 55/92/92
f 55/92/92 38/76/76 57/91/91
f 57/91/91 38/76/76 59/90/90
f 59/90/90 38/76/76 61/89/89
f 61/89/89 38/76/76 62/88/88
f 62/88/88 38/76/76 60/87/87
f 60/87/87 38/76/76 58/86/86
f 58/86/86 38/76/76 56/85/85
f 56/85/85 38/76/76 54/84/84
f 54/84/84 38/76/76 52/83/83
f 52/83/83 38/76/76 50/82/82
f 50/82/82 38/76/76 48/81/81
f 48/81/81 38/76/76 46/80/80
f 46/80/80 38/76/76 44/79/79
f 44/79/79 38/76/76 42/78/78
f 42/78/78 38/76/76 40/77/77
f 1/132/132 2/102/102 3/131/131
f 3/131/131 2/102/102 4/103/103
f 3/131/131 4/103/103 5/130/130
f 5/130/130 4/103/103 6/104/104
f 5/130/130 6/104/104 7/129/129
f 7/129/129 6/104/104 8/105/105
f 7/129/129 8/105/105 9/128/128
f 9/128/128 8/105/105 11/127/127
f 11/127/127 8/105/105 13/126/126
f 13/126/126 8/105/105 15/125/125
f 15/125/125 8/105/105 17/124/124
f 17/124/124 8/105/105 19/123/123
f 19/123/123 8/105/105 21/122/122
f 21/122/122 8/105/105 23/121/121
f 23/121/121 8/105/105 25/120/120
f 25/120/120 8/105/105 27/119/119
f 27/119/119 8/105/105 29/118/118
f 29/118/118 8/105/105 31/117/117
f 31/117/117 8/105/105 30/116/116
f 30/116/116 8/105/105 28/115/115
f 28/115/115 8/105/105 26/114/114
f 26/114/114 8/105/105 24/113/113
f 24/113/113 8/105/105 22/112/112
f 22/112/112 8/105/105 20/111/111
f 20/111/111 8/105/105 18/110/110
f 18/110/110 8/105/105 16/109/109
f 16/109/109 8/105/105 14/108/108
f 14/108/108 8/105/105 12/107/107
f 12/107/107 8/105/105 10/106/106
# 62 vertices
# 132 texture params
# 132 normals
# 120 facets

# 1 groups
